# xmcd CD database file
#
# Track frame offsets:
#	150
#	53572
#	93300
#	127997
#	167475
#	194160
#	223722
#	251237
#	277945
#
# Disc length: 4161 seconds
#
# Revision: 0
# Processed by: cddbd v1.5.2PL0 Copyright (c) Steve Scherf et al.
# Submitted via: CDex 1.70beta2
#
DISCID=7f103f09
DTITLE=Vana Gierig - Making Memories
DYEAR=2013
DGENRE=Jazz
TTITLE0=Declaration
TTITLE1=Making Memories
TTITLE2=Texting While Driving
TTITLE3=Morning Cadence
TTITLE4=The Spell
TTITLE5=The Spiraling Spell
TTITLE6=Rome
TTITLE7=Looking Back
TTITLE8=Conversations
EXTD=YEAR: 2013
EXTT0=
EXTT1=
EXTT2=
EXTT3=
EXTT4=
EXTT5=
EXTT6=
EXTT7=
EXTT8=
PLAYORDER=
